<?xml version="1.0"?>
<svg width="732.49" height="111" xmlns="http://www.w3.org/2000/svg" xmlns:svg="http://www.w3.org/2000/svg">
 <style type="text/css">.st0{fill:none;}
	.st1{fill:#00AEEF;}
	.st2{fill:#FFFFFF;}
	.st3{fill-rule:evenodd;clip-rule:evenodd;fill:#FFFFFF;}</style>
 <g class="layer">
  <title>Layer 1</title>
  <g id="Layer_1"/>
  <g id="Layer_2">
   <g id="svg_1">
    <path class="st0" d="m209.7,155.2c0.9,-4.2 1.9,-11.2 8.9,-11.2c5.6,0 4.3,5.1 4,6.3l-2,0c0.6,-2.4 0.3,-4.6 -2.4,-4.6c-4.7,0 -5.5,4.2 -6.7,9.6c-1.2,5.5 -2.1,9.6 2.6,9.6c2.5,0 3.9,-2.2 4.5,-5l2,0c-0.3,1.6 -1.8,6.6 -6.9,6.6c-6.9,-0.1 -4.9,-7.2 -4,-11.3z" id="svg_2"/>
    <path class="st0" d="m222.5,166l4.6,-21.6l1.8,0l-1.8,8.4l0.1,0c1.1,-1.3 2.5,-2.2 4.1,-2.2c3.7,0 3.5,2.8 3.1,4.8l-2.3,10.7l-1.8,0l2.3,-10.6c0.4,-1.8 0,-3.4 -2.1,-3.4c-1.6,0 -3.5,1.1 -4.2,4.5l-2,9.5l-1.8,0l0,-0.1z" id="svg_3"/>
    <path class="st0" d="m244.1,164.1l0,0c-1.3,1.4 -2.9,2.2 -4.8,2.2c-2.7,0 -3.8,-1.8 -3.2,-4.5c1.1,-5.3 6.3,-4.8 9.5,-5l0.3,-1.3c0.5,-2.2 0.1,-3.6 -2.3,-3.6c-1.6,0 -3.1,0.8 -3.5,2.6l-2.1,0c0.8,-2.9 3.3,-4 5.9,-4c1.5,0 4.7,0.1 3.9,4l-1.6,7.6c-0.2,1.1 -0.4,2 -0.6,3.8l-1.9,0l0.4,-1.8zm1.1,-5.9c-2.6,0.1 -6.4,-0.2 -7.2,3.5c-0.4,1.7 0.2,3.1 2.1,3.1c2.1,0 4.1,-1.9 4.6,-3.8l0.5,-2.8z" id="svg_4"/>
    <path class="st0" d="m249.7,166l4.6,-21.6l1.8,0l-4.6,21.6l-1.8,0z" id="svg_5"/>
    <path class="st0" d="m256.4,166l4.6,-21.6l1.8,0l-4.6,21.6l-1.8,0z" id="svg_6"/>
    <path class="st0" d="m265.4,158.8l-0.2,1.2c-0.4,2.1 -0.5,4.9 2.4,4.9c2.2,0 3.7,-1.4 4.1,-3.5l1.9,0c-1,3.7 -3.2,4.9 -6.3,4.9c-2.6,0 -5,-1 -4,-5.6l0.8,-3.7c0.9,-4.4 3.2,-6.4 6.6,-6.4c5.2,0 4.4,3.7 3.5,8.2l-8.8,0zm7.1,-1.5c0.7,-3.4 0.6,-5.4 -2.3,-5.4s-3.8,2 -4.6,5.4l6.9,0z" id="svg_7"/>
    <path class="st0" d="m277.6,166l-1.8,0l3.2,-15.1l1.8,0l-0.4,1.9l0.1,0c1.1,-1.3 2.5,-2.2 4.1,-2.2c3.7,0 3.5,2.8 3.1,4.8l-2.3,10.7l-1.8,0l2.3,-10.6c0.4,-1.8 0,-3.4 -2.1,-3.4c-1.6,0 -3.5,1.1 -4.2,4.5l-2,9.4z" id="svg_8"/>
    <path class="st0" d="m300.2,150.8l1.8,0c-0.4,1.4 -0.6,2.2 -0.7,3l-2.7,12.7c-0.7,3.3 -2.1,5.3 -6.5,5.3c-3.8,0 -4,-2.7 -3.5,-4.2l1.8,0c-0.5,1.7 0.6,2.8 2.3,2.8c3.5,0 3.7,-1.9 4.7,-6.4l-0.1,0c-1.1,1.3 -2.6,1.8 -4,1.8c-4.3,0 -3.8,-3.7 -3.1,-7.1c0.7,-3.5 0.8,-3.5 1.5,-5.2c0.3,-0.6 1.8,-3 4.9,-3c1.5,0 2.9,0.8 3.3,2.1l0,0.1l0.3,-1.9zm-8.2,7.3c-0.7,3.1 -1.3,6.3 1.9,6.3c1.5,0 2.7,-1 3.1,-1.7c0.7,-1.2 1,-1.9 1.9,-6.3c0.7,-3.2 -0.8,-4.4 -2.5,-4.4c-3.1,0 -3.9,3.8 -4.4,6.1z" id="svg_9"/>
    <path class="st0" d="m303,166l3.2,-15.1l1.8,0l-3.2,15.1l-1.8,0zm3.9,-19.4l0.5,-2.3l2.2,0l-0.5,2.3l-2.2,0z" id="svg_10"/>
    <path class="st0" d="m310.8,166l-1.8,0l3.2,-15.1l1.8,0l-0.4,1.9l0.1,0c1.1,-1.3 2.5,-2.2 4.1,-2.2c3.7,0 3.5,2.8 3.1,4.8l-2.3,10.7l-1.8,0l2.3,-10.6c0.4,-1.8 0,-3.4 -2.1,-3.4c-1.6,0 -3.5,1.1 -4.2,4.5l-2,9.4z" id="svg_11"/>
    <path class="st0" d="m333.5,150.8l1.8,0c-0.4,1.4 -0.6,2.2 -0.7,3l-2.7,12.7c-0.7,3.3 -2.1,5.3 -6.5,5.3c-3.8,0 -4,-2.7 -3.5,-4.2l1.8,0c-0.5,1.7 0.6,2.8 2.3,2.8c3.5,0 3.7,-1.9 4.7,-6.4l-0.1,0c-1.1,1.3 -2.6,1.8 -4,1.8c-4.3,0 -3.9,-3.7 -3.1,-7.1c0.7,-3.5 0.8,-3.5 1.5,-5.2c0.3,-0.6 1.8,-3 4.9,-3c1.5,0 2.9,0.8 3.3,2.1l0,0.1l0.3,-1.9zm-8.3,7.3c-0.7,3.1 -1.3,6.3 1.9,6.3c1.5,0 2.7,-1 3.1,-1.7c0.7,-1.2 1,-1.9 1.9,-6.3c0.7,-3.2 -0.8,-4.4 -2.5,-4.4c-3,0 -3.9,3.8 -4.4,6.1z" id="svg_12"/>
    <path class="st0" d="m342.5,166l4.6,-21.6l6,0c3.4,0 4.8,1.4 4,5.2c-0.6,2.6 -1.4,4.4 -4.2,5.2l0,0.1c2.7,0.6 3.1,2.5 2.5,5.2c-0.8,3.9 -3.1,6 -6.8,6l-6.1,0l0,-0.1zm2.3,-1.6l3.1,0c3.2,0 4.9,-1.1 5.6,-4.3c0.4,-1.9 0.4,-4.5 -2.9,-4.5l-3.9,0l-1.9,8.8zm5.9,-10.4c2.8,0 4,-1.9 4.6,-4.3c0.8,-3.6 -1.2,-3.7 -2.7,-3.7l-3.8,0l-1.7,8l3.6,0z" id="svg_13"/>
    <path class="st0" d="m362,152.9l0,0c1.1,-1.4 2.9,-2.3 4.7,-2.3l-0.4,1.8c-2.5,-0.2 -4.5,1.3 -5,3.9l-2.1,9.7l-1.8,0l3.2,-15.1l1.8,0l-0.4,2z" id="svg_14"/>
    <path class="st0" d="m366.2,166l3.2,-15.1l1.8,0l-3.2,15.1l-1.8,0zm3.9,-19.4l0.5,-2.3l2.2,0l-0.5,2.3l-2.2,0z" id="svg_15"/>
    <path class="st0" d="m372.9,166l4.6,-21.6l1.8,0l-4.6,21.6l-1.8,0z" id="svg_16"/>
    <path class="st0" d="m379.5,166l4.6,-21.6l1.8,0l-4.6,21.6l-1.8,0z" id="svg_17"/>
    <path class="st0" d="m386.2,166l3.2,-15.1l1.8,0l-3.2,15.1l-1.8,0zm3.9,-19.4l0.5,-2.3l2.2,0l-0.5,2.3l-2.2,0z" id="svg_18"/>
    <path class="st0" d="m400.4,164.1l0,0c-1.3,1.4 -2.9,2.2 -4.8,2.2c-2.7,0 -3.8,-1.8 -3.2,-4.5c1.1,-5.3 6.3,-4.8 9.5,-5l0.3,-1.3c0.5,-2.2 0.1,-3.6 -2.3,-3.6c-1.6,0 -3.1,0.8 -3.5,2.6l-1.9,0c0.8,-2.9 3.3,-4 5.9,-4c1.5,0 4.7,0.1 3.9,4l-1.6,7.6c-0.2,1.1 -0.4,2 -0.6,3.8l-2.1,0l0.4,-1.8zm1.2,-5.9c-2.6,0.1 -6.4,-0.2 -7.2,3.5c-0.4,1.7 0.2,3.1 2.1,3.1c2.1,0 4.1,-1.9 4.6,-3.8l0.5,-2.8z" id="svg_19"/>
    <path class="st0" d="m407.3,166l-1.8,0l3.2,-15.1l1.8,0l-0.4,1.9l0.1,0c1.1,-1.3 2.5,-2.2 4.1,-2.2c3.7,0 3.5,2.8 3.1,4.8l-2.3,10.7l-1.8,0l2.3,-10.6c0.4,-1.8 0,-3.4 -2.1,-3.4c-1.6,0 -3.5,1.1 -4.2,4.5l-2,9.4z" id="svg_20"/>
    <path class="st0" d="m420.4,152.3l0.3,-1.4l2.4,0l0.7,-3.1l2,-0.8l-0.8,3.9l3.1,0l-0.3,1.4l-3.1,0l-2.1,9.7c-0.4,2 -0.3,2.5 1.1,2.5c0.6,0 1,0 1.4,-0.1l-0.3,1.6c-0.6,0.1 -1.2,0.1 -1.7,0.1c-2.4,0 -2.9,-1.1 -2.5,-2.9l2.3,-10.8l-2.5,0l0,-0.1z" id="svg_21"/>
    <path class="st0" d="m434.1,166l4.6,-21.6l3.3,0l2.2,19.5l0.1,0l10.5,-19.5l3.1,0l-4.6,21.6l-1.9,0l4.2,-19.8l-0.1,0l-10.6,19.8l-2.2,0l-2.3,-19.8l-0.1,0l-4.3,19.8l-1.9,0z" id="svg_22"/>
    <path class="st0" d="m457.7,166l3.2,-15.1l1.8,0l-3.2,15.1l-1.8,0zm3.9,-19.4l0.5,-2.3l2.2,0l-0.5,2.3l-2.2,0z" id="svg_23"/>
    <path class="st0" d="m465.6,166l-1.8,0l3.2,-15.1l1.8,0l-0.4,1.9l0.1,0c1.1,-1.3 2.5,-2.2 4.1,-2.2c3.7,0 3.5,2.8 3.1,4.8l-2.3,10.7l-1.8,0l2.3,-10.6c0.4,-1.8 0,-3.4 -2.1,-3.4c-1.6,0 -3.5,1.1 -4.2,4.5l-2,9.4z" id="svg_24"/>
    <path class="st0" d="m485.5,164.1l0,0c-1.3,1.5 -2.6,2.2 -4.4,2.2c-4.4,0 -3.7,-4.3 -2.9,-7.9c0.6,-2.9 1.7,-7.9 6.3,-7.9c1.4,0 2.6,0.6 3.3,1.8l0.1,0l1.7,-8l1.8,0l-4,18.6c-0.3,1.5 -0.4,2.5 -0.5,3l-1.7,0l0.3,-1.8zm0.8,-4.3l0.6,-2.7c0.2,-0.9 1.1,-5.1 -2.3,-5.1c-3.2,0 -3.9,2.9 -4.6,6.5c-1.2,5.6 0,6.4 1.9,6.4c1.7,-0.1 3.6,-1.4 4.4,-5.1z" id="svg_25"/>
    <path class="st0" d="m494.4,166.3c-3.3,0 -4.2,-1.6 -3.5,-4.8l1.8,0c-0.4,2.1 -0.3,3.4 2.1,3.4c1.7,0 2.8,-1 3.1,-2.7c0.8,-4 -6.2,-2.9 -5.1,-7.9c0.6,-2.8 2.7,-3.8 5.4,-3.8c3,0 3.5,2.1 3,4.4l-1.8,0c0.3,-1.9 0,-2.9 -2,-2.9c-1.3,0 -2.5,0.8 -2.8,2.2c-0.8,3.8 6.2,2.8 5.1,7.8c-0.6,2.8 -2.5,4.3 -5.3,4.3z" id="svg_26"/>
    <path class="st0" d="m521.6,149.8c0.5,-2.7 0.2,-4.3 -2.7,-4.3c-2.3,0 -4,0.8 -4.5,3.4c-0.7,3.2 0.9,3.3 3,5.1c2.3,1.9 4.9,2.5 4,6.7c-0.8,3.9 -3.2,5.8 -7,5.8c-4.2,0 -5.6,-2.3 -4.6,-6.5l2,0c-0.5,2.4 -0.9,4.9 3,4.9c2.5,0 4,-1.3 4.6,-3.8c0.6,-2.9 -1.1,-3.8 -3.9,-5.7c-3.6,-2.6 -3.6,-3.9 -3.1,-6c0.8,-3.7 3.5,-5.3 7,-5.3c4.5,0 4.9,2.8 4.2,5.9l-2,0l0,-0.2z" id="svg_27"/>
    <path class="st0" d="m524.3,166l3.2,-15.1l1.8,0l-3.2,15.1l-1.8,0zm3.9,-19.4l0.5,-2.3l2.2,0l-0.5,2.3l-2.2,0z" id="svg_28"/>
    <path class="st0" d="m532.2,166l-1.8,0l3.2,-15.1l1.8,0l-0.4,1.9l0.1,0c1.1,-1.3 2.5,-2.2 4.1,-2.2c3.7,0 3.5,2.8 3.1,4.8l-2.3,10.6l-1.8,0l2.3,-10.6c0.4,-1.8 0,-3.4 -2.1,-3.4c-1.6,0 -3.5,1.1 -4.2,4.5l-2,9.5z" id="svg_29"/>
    <path class="st0" d="m552.7,155.2c0.5,-1.9 0.1,-3.2 -2,-3.2c-1.1,0 -2.2,0.6 -2.8,1.7c-0.4,0.7 -1,2.8 -1.4,4.8c-0.6,2.7 -1.4,6.4 1.4,6.4c2.4,0 3,-1.5 3.5,-3.3l1.8,0c-0.7,4.1 -3.7,4.8 -5.2,4.8c-5.1,0 -4.3,-4 -3.5,-7.8c0.3,-1.5 0.9,-3.9 1.5,-5c1.2,-2.2 3.1,-2.9 5.2,-2.9c2.6,0 4.1,1.5 3.2,4.6l-1.7,0l0,-0.1z" id="svg_30"/>
    <path class="st0" d="m558.3,158.8l-0.2,1.2c-0.4,2.1 -0.5,4.9 2.4,4.9c2.2,0 3.7,-1.4 4.1,-3.5l1.9,0c-1,3.7 -3.2,4.9 -6.3,4.9c-2.6,0 -5,-1 -4,-5.6l0.8,-3.7c0.9,-4.4 3.2,-6.4 6.6,-6.4c5.2,0 4.4,3.7 3.5,8.2l-8.8,0zm7.1,-1.5c0.7,-3.4 0.6,-5.4 -2.3,-5.4c-2.9,0 -3.8,2 -4.6,5.4l6.9,0z" id="svg_31"/>
    <path class="st0" d="m585.3,166l-10.6,0l0.4,-1.7c6.2,-7.2 11.2,-12 11.8,-14.8c0.6,-2.8 -1.1,-3.1 -2.7,-3.1c-2.3,0 -3.8,1.6 -4.2,3.8l-2,0c0.9,-4.2 3.9,-5.4 6.4,-5.4c2.4,0 5.2,0.8 4.4,4.3c-0.7,3.1 -2.5,4.8 -11.8,15.3l8.5,0l-0.2,1.6z" id="svg_32"/>
    <path class="st0" d="m601.5,153.3l-1,4.5c-0.8,3.9 -1.8,8.5 -7.1,8.5s-4.4,-4.6 -3.5,-8.5l1,-4.5c0.8,-3.9 1.8,-8.5 7.1,-8.5c5.3,-0.1 4.3,4.5 3.5,8.5zm-10.1,6.3c-1,4.7 1,5.1 2.3,5.1c1.3,0 3.5,-0.4 4.5,-5.1l1.7,-8.2c1,-4.7 -1,-5.1 -2.3,-5.1c-1.3,0 -3.5,0.4 -4.5,5.1l-1.7,8.2z" id="svg_33"/>
    <path class="st0" d="m614.8,153.3l-1,4.5c-0.8,3.9 -1.8,8.5 -7.1,8.5c-5.3,0 -4.4,-4.6 -3.5,-8.5l1,-4.5c0.8,-3.9 1.8,-8.5 7.1,-8.5s4.3,4.5 3.5,8.5zm-10.1,6.3c-1,4.7 1,5.1 2.3,5.1c1.3,0 3.5,-0.4 4.5,-5.1l1.7,-8.2c1,-4.7 -1,-5.1 -2.3,-5.1s-3.5,0.4 -4.5,5.1l-1.7,8.2z" id="svg_34"/>
    <path class="st0" d="m626.7,149.7c0.3,-2.1 -0.2,-3.4 -2.3,-3.4c-3.6,0 -4.5,3.7 -5.1,6.9l-0.4,1.8l0.1,0c1.1,-1.5 2.8,-2.3 4.6,-2.3c5,0 3.6,5.3 3.4,5.9c-0.9,4.1 -2.1,7.6 -6.7,7.6c-5.1,0 -4.9,-3 -4.1,-7.1l1.5,-6.8c1.1,-5.1 2.6,-7.6 7.2,-7.6c3.2,0 4.4,1.7 3.8,5l-2,0zm-4,4.7c-2.2,0 -4,1.4 -4.8,5c0,0.2 -1.5,5.2 2.4,5.2c3.2,0 4,-2.9 4.5,-5.4c0.8,-3.2 0.3,-4.8 -2.1,-4.8z" id="svg_35"/>
   </g>
   <g id="svg_36">
    <path class="st1" d="m47.2,110.2c0,0 -32.4,-17.2 -43.1,-47.1c-4.3,-12 -3.4,-62.6 -3.4,-62.6l92.6,0c0,0 0.8,50.5 -3.2,62.6c-10.7,32.2 -42.9,47.1 -42.9,47.1z" id="svg_37"/>
    <g id="svg_38">
     <path class="st0" d="m6.6,6.5c-0.1,19.4 0.6,47.4 3.2,54.7c8.1,22.6 30.1,37.6 37.7,42.3c3,-1.7 8.1,-4.8 13.7,-9.5c7.9,-6.5 18.3,-17.5 23.3,-32.7c2.4,-7.3 3.1,-35.3 2.9,-54.7l-80.8,0l0,-0.1z" id="svg_39"/>
     <g id="svg_40">
      <g id="svg_41">
       <path class="st0" d="m6.6,6.5c-0.1,19.4 0.6,47.4 3.2,54.7c8.1,22.6 30.1,37.6 37.7,42.3c3,-1.7 8.1,-4.8 13.7,-9.5c7.9,-6.5 18.3,-17.5 23.3,-32.7c2.4,-7.3 3.1,-35.3 2.9,-54.7l-80.8,0l0,-0.1z" id="svg_42"/>
       <path class="st2" d="m89.9,6.5l0,-2.5l-2.5,0l-80.8,0l-2.5,0l0,2.5c0,4.7 -0.2,45.7 3.3,55.5c3.6,10.1 10.2,19.8 19.6,28.8c7.6,7.3 15.2,12.4 19.1,14.7l1.2,0.8l1.3,-0.7c3.3,-1.9 8.5,-5.1 14.1,-9.8c8.1,-6.8 18.9,-18.1 24.1,-33.8c3.3,-9.9 3.1,-50.9 3.1,-55.5zm-5.4,54.7c-5,15.2 -15.5,26.2 -23.3,32.7c-5.6,4.7 -10.8,7.8 -13.7,9.5c-7.6,-4.7 -29.6,-19.7 -37.7,-42.3c-2.6,-7.2 -3.3,-35.2 -3.2,-54.7l80.8,0c0.1,19.5 -0.5,47.5 -2.9,54.8z" id="svg_43"/>
      </g>
     </g>
    </g>
    <path class="st0" d="m48,55.3c-0.2,-0.1 -0.5,-0.1 -0.7,-0.2c-0.3,0 -0.6,0 -0.9,0c-0.1,0 -0.3,0 -0.4,0c0.7,0.2 1.3,0.4 2,0.5l0,-0.3z" id="svg_44"/>
    <g id="svg_45">
     <path class="st3" d="m71.5,68.8c-0.8,0 -1.7,-0.1 -2.6,-0.2c-1.3,-0.3 -3.1,-1.2 -5.5,-6.8c-0.8,-1.9 -1.7,-4.1 -2.8,-6.9l12.7,-15l-28.7,26l-18.6,-17.5l5.5,7.8l-2.7,6.8c-1.3,3.1 -2.4,5.3 -5.3,5.7c-0.5,0.1 -1.4,0.1 -1.9,0.1c-0.5,0 -0.8,0.1 -0.8,0.5c0,0.5 0.4,0.6 1.2,0.6c3.3,0 6.7,-0.2 7.4,-0.2c1.9,0 4.6,0.2 6.6,0.2c0.7,0 1.1,-0.9 1.1,-1.4c0,-0.4 -0.2,-1.3 -0.9,-1.3l-0.9,0c-1.9,0 -2.5,0 -2.5,-1.2c0,-0.8 0.3,-1.9 0.9,-3.4l0.9,-2.2l9.7,13.7l10.7,-12.7l2.3,5.8c0.3,0.8 -0.1,1.3 -0.6,1.4c-0.6,0.1 -0.9,0.2 -0.9,0.6c0,0.4 0.8,0.4 1.9,0.5c5,0.1 9.6,0.1 11.9,0.1c2.3,0 2.9,-0.1 2.9,-0.6c-0.1,-0.4 -0.5,-0.4 -1,-0.4z" id="svg_46"/>
     <path class="st3" d="m36.5,55.7l2.8,-7.2l5.1,-13.5c0.1,-0.3 0.2,-0.6 0.4,-0.6c0.2,0 0.3,0.3 0.3,0.6l4.5,12.3l2.5,6.7l6.1,-5.1c-4.3,-10.6 -9.3,-22.9 -10.3,-25.2c-0.6,-1.4 -1,-2 -1.6,-2c-0.6,0 -1,0.7 -1.8,2.5l-11.8,29.3l3.5,3.2l0.3,-1z" id="svg_47"/>
     <circle class="st3" cx="43.9" cy="56.7" id="svg_48" r="3.4"/>
    </g>
   </g>
   <g id="svg_49">
    <g id="svg_50">
     <path class="st2" d="m120.9,38.7c-0.3,0 -0.4,0.1 -0.5,0.5l-3.2,8.1c-0.6,1.5 -0.9,2.9 -0.9,3.6c0,1.1 0.5,1.8 2.4,1.8l0.9,0c0.7,0 0.9,0.1 0.9,0.5c0,0.5 -0.4,0.6 -1,0.6c-1.9,0 -4.5,-0.2 -6.3,-0.2c-0.7,0 -3.9,0.2 -7,0.2c-0.8,0 -1.1,-0.1 -1.1,-0.6c0,-0.4 0.2,-0.5 0.7,-0.5c0.5,0 1.4,-0.1 1.8,-0.1c2.7,-0.4 3.9,-2.4 5.1,-5.4l14.9,-36.9c0.7,-1.7 1.1,-2.4 1.7,-2.4c0.5,0 0.9,0.5 1.5,1.9c1.4,3.3 10.9,27.1 14.8,36.1c2.3,5.4 4,6.2 5.2,6.5c0.9,0.2 1.8,0.2 2.5,0.2c0.5,0 0.8,0.1 0.8,0.5c0,0.5 -0.5,0.6 -2.7,0.6c-2.1,0 -6.5,0 -11.2,-0.1c-1.1,-0.1 -1.8,-0.1 -1.8,-0.5c0,-0.4 0.2,-0.5 0.8,-0.5c0.4,-0.1 0.8,-0.7 0.5,-1.4l-4.8,-12.3c-0.1,-0.3 -0.3,-0.4 -0.6,-0.4l-13.4,0l0,0.2zm12.2,-3c0.3,0 0.4,-0.2 0.3,-0.4l-5.4,-14.6c-0.1,-0.2 -0.1,-0.5 -0.3,-0.5c-0.2,0 -0.3,0.3 -0.4,0.5l-5.5,14.6c-0.1,0.2 0,0.4 0.2,0.4l11.1,0z" id="svg_51"/>
     <path class="st2" d="m160.2,26.1c0,-9 0,-10.7 -0.1,-12.6c-0.1,-2 -0.6,-3 -2.6,-3.4c-0.5,-0.1 -1.5,-0.2 -2.3,-0.2c-0.7,0 -1,-0.1 -1,-0.5c0,-0.4 0.4,-0.5 1.3,-0.5c3.2,0 6.9,0.2 8.1,0.2c2,0 6.5,-0.2 8.4,-0.2c3.7,0 7.7,0.4 10.9,2.6c1.7,1.1 4,4.2 4,8.1c0,4.4 -1.8,8.4 -7.9,13.3c5.3,6.7 9.4,12 12.9,15.6c3.3,3.5 5.8,3.9 6.7,4c0.7,0.1 1.2,0.2 1.7,0.2c0.5,0 0.7,0.2 0.7,0.5c0,0.5 -0.4,0.6 -1.1,0.6l-5.6,0c-3.3,0 -4.8,-0.3 -6.4,-1.1c-2.6,-1.4 -4.8,-4.2 -8.1,-8.7c-2.4,-3.3 -5.1,-7.3 -5.9,-8.2c-0.3,-0.4 -0.7,-0.4 -1.1,-0.4l-5.2,-0.1c-0.3,0 -0.5,0.1 -0.5,0.5l0,0.8c0,5.5 0,10.2 0.3,12.7c0.2,1.7 0.5,3 2.3,3.3c0.9,0.1 2.2,0.2 2.9,0.2c0.5,0 0.7,0.2 0.7,0.5c0,0.4 -0.4,0.6 -1.2,0.6c-3.5,0 -7.9,-0.2 -8.7,-0.2c-1.1,0 -4.9,0.2 -7.3,0.2c-0.8,0 -1.2,-0.2 -1.2,-0.6c0,-0.3 0.2,-0.5 1,-0.5c0.9,0 1.6,-0.1 2.1,-0.2c1.2,-0.2 1.5,-1.5 1.7,-3.3c0.3,-2.5 0.3,-7.2 0.3,-12.7l0,-10.5l0.2,0zm7,4.7c0,0.7 0.1,0.9 0.5,1.1c1.2,0.4 3,0.6 4.5,0.6c2.4,0 3.2,-0.2 4.2,-1c1.8,-1.3 3.5,-4 3.5,-8.9c0,-8.4 -5.6,-10.9 -9.1,-10.9c-1.5,0 -2.6,0.1 -3.2,0.2c-0.4,0.1 -0.5,0.4 -0.5,0.8l0,18.1l0.1,0z" id="svg_52"/>
     <path class="st2" d="m205.1,26.1c0,-9 0,-10.7 -0.1,-12.6c-0.1,-2 -0.6,-3 -2.6,-3.4c-0.5,-0.1 -1.5,-0.2 -2.3,-0.2c-0.7,0 -1,-0.1 -1,-0.5c0,-0.4 0.4,-0.5 1.3,-0.5c3.2,0 6.9,0.2 8.6,0.2c1.8,0 5.6,-0.2 9.2,-0.2c7.4,0 17.4,0 23.9,6.8c3,3.1 5.8,8 5.8,15.1c0,7.5 -3.2,13.2 -6.5,16.6c-2.7,2.8 -8.9,7 -19.9,7c-2.1,0 -4.6,-0.2 -6.8,-0.4c-2.3,-0.2 -4.3,-0.4 -5.8,-0.4c-0.7,0 -2,0 -3.4,0.1c-1.4,0 -2.9,0.1 -4.1,0.1c-0.8,0 -1.2,-0.2 -1.2,-0.6c0,-0.3 0.2,-0.5 1,-0.5c0.9,0 1.6,-0.1 2.1,-0.2c1.2,-0.2 1.5,-1.5 1.7,-3.3c0.3,-2.5 0.3,-7.2 0.3,-12.7l0,-10.4l-0.2,0zm7.4,6.6c0,6.3 0.1,10.9 0.1,12c0.1,1.5 0.2,3.9 0.7,4.5c0.8,1.1 3.1,2.4 7.8,2.4c6.1,0 10.1,-1.2 13.7,-4.3c3.8,-3.3 5,-8.7 5,-14.8c0,-7.6 -3.2,-12.4 -5.7,-14.9c-5.5,-5.2 -12.3,-5.9 -16.9,-5.9c-1.2,0 -3.4,0.2 -3.9,0.4c-0.5,0.2 -0.7,0.5 -0.7,1.2c-0.1,2 -0.1,7.2 -0.1,11.9l0,7.5z" id="svg_53"/>
     <path class="st2" d="m260.2,26.1c0,-9 0,-10.7 -0.1,-12.6c-0.1,-2 -0.6,-3 -2.6,-3.4c-0.5,-0.1 -1.5,-0.2 -2.3,-0.2c-0.7,0 -1,-0.1 -1,-0.5c0,-0.4 0.4,-0.5 1.3,-0.5c1.6,0 3.3,0.1 4.8,0.1c1.5,0.1 2.9,0.1 3.7,0.1c1.9,0 13.7,0 14.9,-0.1c1.1,-0.1 2.1,-0.2 2.6,-0.4c0.3,-0.1 0.7,-0.2 1,-0.2s0.4,0.2 0.4,0.5c0,0.4 -0.3,1.1 -0.5,3.9c-0.1,0.6 -0.2,3.2 -0.3,3.9c-0.1,0.3 -0.2,0.7 -0.6,0.7c-0.4,0 -0.5,-0.3 -0.5,-0.8c0,-0.4 -0.1,-1.4 -0.4,-2.1c-0.4,-1.1 -1,-1.8 -4,-2.1c-1,-0.1 -7.3,-0.2 -8.4,-0.2c-0.3,0 -0.4,0.2 -0.4,0.6l0,15c0,0.4 0.1,0.7 0.4,0.7c1.3,0 8.1,0 9.5,-0.1c1.4,-0.1 2.3,-0.3 2.9,-0.9c0.4,-0.5 0.7,-0.8 1,-0.8c0.2,0 0.4,0.1 0.4,0.5c0,0.4 -0.2,1.3 -0.5,4.3c-0.1,1.2 -0.2,3.6 -0.2,4c0,0.5 0,1.1 -0.5,1.1c-0.4,0 -0.5,-0.2 -0.5,-0.5c-0.1,-0.6 -0.1,-1.4 -0.2,-2.1c-0.3,-1.2 -1.1,-2.1 -3.3,-2.3c-1.1,-0.1 -7,-0.2 -8.4,-0.2c-0.3,0 -0.4,0.2 -0.4,0.6l0,4.7c0,2 -0.1,7.5 0,9.2c0.1,4.1 1.1,5 7.1,5c1.5,0 4,0 5.6,-0.7c1.5,-0.7 2.3,-2 2.7,-4.4c0.1,-0.7 0.2,-0.9 0.7,-0.9c0.5,0 0.5,0.5 0.5,1.1c0,1.4 -0.5,5.4 -0.8,6.6c-0.4,1.5 -1,1.5 -3.2,1.5c-4.5,0 -7.7,-0.1 -10.3,-0.2c-2.6,-0.1 -4.4,-0.2 -6.2,-0.2c-0.7,0 -2,0 -3.4,0.1c-1.4,0 -2.9,0.1 -4.1,0.1c-0.8,0 -1.2,-0.2 -1.2,-0.6c0,-0.3 0.2,-0.5 1,-0.5c0.9,0 1.6,-0.1 2.1,-0.2c1.2,-0.2 1.5,-1.5 1.7,-3.3c0.3,-2.5 0.3,-7.2 0.3,-12.7l0,-10.6l-0.3,0z" id="svg_54"/>
     <path class="st2" d="m301.1,45.8c0.1,4.6 0.9,6.2 2.1,6.6c1,0.4 2.1,0.4 3.1,0.4c0.7,0 1,0.1 1,0.5c0,0.5 -0.5,0.6 -1.4,0.6c-3.9,0 -6.2,-0.2 -7.4,-0.2c-0.5,0 -3.3,0.2 -6.4,0.2c-0.8,0 -1.3,-0.1 -1.3,-0.6c0,-0.4 0.4,-0.5 1,-0.5c0.8,0 1.8,-0.1 2.7,-0.3c1.5,-0.5 1.8,-2.2 1.8,-7.4l0.5,-35c0,-1.2 0.2,-2 0.8,-2c0.7,0 1.2,0.8 2.2,1.8c0.7,0.8 9.8,10.3 18.4,18.9c4,4 12.1,12.6 13.1,13.6l0.3,0l-0.6,-26.7c-0.1,-3.6 -0.6,-4.8 -2,-5.4c-0.9,-0.4 -2.3,-0.4 -3.2,-0.4c-0.7,0 -1,-0.2 -1,-0.5c0,-0.5 0.7,-0.5 1.5,-0.5c3.1,0 5.9,0.2 7.2,0.2c0.7,0 2.9,-0.2 5.8,-0.2c0.8,0 1.4,0.1 1.4,0.5c0,0.4 -0.4,0.5 -1.1,0.5c-0.6,0 -1.1,0 -1.8,0.2c-1.7,0.5 -2.1,1.7 -2.2,5.1l-0.7,37.5c0,1.3 -0.2,1.8 -0.8,1.8c-0.7,0 -1.4,-0.7 -2,-1.3c-3.7,-3.6 -11.4,-11.4 -17.5,-17.5c-6.5,-6.4 -13.1,-13.7 -14.2,-14.8l-0.2,0l0.9,24.9z" id="svg_55"/>
     <path class="st2" d="m362,12.2l-8.9,0.2c-3.5,0.1 -4.9,0.4 -5.8,1.7c-0.6,0.9 -0.9,1.6 -1,2.1c-0.1,0.5 -0.3,0.7 -0.7,0.7c-0.4,0 -0.5,-0.3 -0.5,-1c0,-1 1.1,-6.4 1.2,-6.8c0.2,-0.8 0.4,-1.1 0.7,-1.1c0.5,0 1.1,0.6 2.6,0.7c1.7,0.2 4,0.3 5.9,0.3l23.6,0c1.9,0 3.2,-0.2 4.1,-0.3c0.9,-0.2 1.4,-0.3 1.6,-0.3c0.4,0 0.5,0.4 0.5,1.2c0,1.2 -0.2,5.4 -0.2,6.9c-0.1,0.6 -0.2,1 -0.5,1c-0.5,0 -0.6,-0.3 -0.7,-1.2l-0.1,-0.7c-0.1,-1.5 -1.7,-3.2 -7,-3.3l-7.5,-0.2l0,24.4c0,5.5 0,10.2 0.3,12.7c0.2,1.7 0.5,3 2.3,3.2c0.8,0.1 2.1,0.2 3,0.2c0.7,0 1,0.2 1,0.5c0,0.4 -0.5,0.6 -1.1,0.6c-3.9,0 -7.7,-0.2 -9.3,-0.2c-1.4,0 -5.1,0.2 -7.5,0.2c-0.8,0 -1.2,-0.2 -1.2,-0.6c0,-0.3 0.2,-0.5 1,-0.5c0.9,0 1.6,-0.1 2.1,-0.2c1.2,-0.2 1.5,-1.5 1.7,-3.3c0.3,-2.5 0.3,-7.2 0.3,-12.7l0,-24.2l0.1,0z" id="svg_56"/>
     <path class="st2" d="m416.5,38.7c-0.3,0 -0.4,0.1 -0.5,0.5l-3.2,8.1c-0.6,1.5 -0.9,2.9 -0.9,3.6c0,1.1 0.5,1.8 2.4,1.8l0.9,0c0.7,0 0.9,0.1 0.9,0.5c0,0.5 -0.4,0.6 -1,0.6c-1.9,0 -4.5,-0.2 -6.3,-0.2c-0.7,0 -3.9,0.2 -7,0.2c-0.8,0 -1.1,-0.1 -1.1,-0.6c0,-0.4 0.2,-0.5 0.7,-0.5c0.5,0 1.4,-0.1 1.8,-0.1c2.7,-0.4 3.9,-2.4 5.1,-5.4l14.9,-36.9c0.7,-1.7 1.1,-2.4 1.7,-2.4c0.5,0 0.9,0.5 1.5,1.9c1.4,3.3 10.9,27.1 14.8,36.1c2.3,5.4 4,6.2 5.2,6.5c0.9,0.2 1.8,0.2 2.5,0.2c0.5,0 0.8,0.1 0.8,0.5c0,0.5 -0.5,0.6 -2.7,0.6c-2.1,0 -6.5,0 -11.2,-0.1c-1.1,-0.1 -1.8,-0.1 -1.8,-0.5c0,-0.4 0.2,-0.5 0.8,-0.5c0.4,-0.1 0.8,-0.7 0.5,-1.4l-4.8,-12.3c-0.1,-0.3 -0.3,-0.4 -0.6,-0.4l-13.4,0l0,0.2zm12.2,-3c0.3,0 0.4,-0.2 0.3,-0.4l-5.4,-14.6c-0.1,-0.2 -0.1,-0.5 -0.3,-0.5c-0.2,0 -0.3,0.3 -0.4,0.5l-5.5,14.6c-0.1,0.2 0,0.4 0.2,0.4l11.1,0z" id="svg_57"/>
     <path class="st2" d="m456.7,48.2c-5.8,-5.1 -7.4,-11.8 -7.4,-17.5c0,-4 1.2,-11.1 7,-16.3c4.3,-3.9 9.9,-6.3 18.8,-6.3c3.7,0 5.9,0.2 8.6,0.6c2.3,0.3 4.2,0.8 5.9,1c0.7,0.1 0.9,0.4 0.9,0.7c0,0.5 -0.2,1.2 -0.3,3.3c-0.1,2 -0.1,5.2 -0.2,6.4c-0.1,0.9 -0.2,1.4 -0.7,1.4c-0.5,0 -0.6,-0.5 -0.6,-1.3c-0.1,-1.8 -0.8,-3.9 -2.3,-5.5c-2,-2.1 -6.6,-3.7 -12.1,-3.7c-5.2,0 -8.6,1.3 -11.2,3.7c-4.3,4 -5.5,9.6 -5.5,15.4c0,14.2 10.8,21.2 18.7,21.2c5.3,0 8.5,-0.6 10.9,-3.3c1,-1.1 1.8,-2.9 2,-3.9c0.2,-1 0.3,-1.2 0.8,-1.2c0.4,0 0.5,0.4 0.5,0.9c0,0.7 -0.7,5.9 -1.3,7.9c-0.3,1 -0.5,1.3 -1.5,1.7c-2.4,1 -6.9,1.4 -10.7,1.4c-8,-0.1 -14.9,-1.9 -20.3,-6.6z" id="svg_58"/>
     <path class="st2" d="m507.6,38.7c-0.3,0 -0.4,0.1 -0.5,0.5l-3.2,8.1c-0.6,1.5 -0.9,2.9 -0.9,3.6c0,1.1 0.5,1.8 2.4,1.8l0.9,0c0.7,0 0.9,0.1 0.9,0.5c0,0.5 -0.4,0.6 -1,0.6c-1.9,0 -4.5,-0.2 -6.3,-0.2c-0.7,0 -3.9,0.2 -7,0.2c-0.8,0 -1.1,-0.1 -1.1,-0.6c0,-0.4 0.2,-0.5 0.7,-0.5c0.5,0 1.4,-0.1 1.8,-0.1c2.7,-0.4 3.9,-2.4 5.1,-5.4l14.9,-36.9c0.7,-1.7 1.1,-2.4 1.7,-2.4c0.5,0 0.9,0.5 1.5,1.9c1.4,3.3 10.9,27.1 14.8,36.1c2.3,5.4 4,6.2 5.2,6.5c0.9,0.2 1.8,0.2 2.5,0.2c0.5,0 0.8,0.1 0.8,0.5c0,0.5 -0.5,0.6 -2.7,0.6c-2.1,0 -6.5,0 -11.2,-0.1c-1.1,-0.1 -1.8,-0.1 -1.8,-0.5c0,-0.4 0.2,-0.5 0.8,-0.5c0.4,-0.1 0.8,-0.7 0.5,-1.4l-4.8,-12.3c-0.1,-0.3 -0.3,-0.4 -0.6,-0.4l-13.4,0l0,0.2zm12.1,-3c0.3,0 0.4,-0.2 0.3,-0.4l-5.4,-14.6c-0.1,-0.2 -0.1,-0.5 -0.3,-0.5c-0.2,0 -0.3,0.3 -0.4,0.5l-5.5,14.6c-0.1,0.2 0,0.4 0.2,0.4l11.1,0z" id="svg_59"/>
     <path class="st2" d="m546.8,26.1c0,-9 0,-10.7 -0.1,-12.6c-0.1,-2 -0.6,-3 -2.6,-3.4c-0.5,-0.1 -1.5,-0.2 -2.3,-0.2c-0.7,0 -1,-0.1 -1,-0.5c0,-0.4 0.4,-0.5 1.3,-0.5c3.2,0 6.9,0.2 8.6,0.2c1.8,0 5.6,-0.2 9.2,-0.2c7.4,0 17.4,0 23.9,6.8c3,3.1 5.8,8 5.8,15.1c0,7.5 -3.2,13.2 -6.5,16.6c-2.7,2.8 -8.9,7 -19.9,7c-2.1,0 -4.6,-0.2 -6.8,-0.4c-2.3,-0.2 -4.3,-0.4 -5.8,-0.4c-0.7,0 -2,0 -3.4,0.1c-1.4,0 -2.9,0.1 -4.1,0.1c-0.8,0 -1.2,-0.2 -1.2,-0.6c0,-0.3 0.2,-0.5 1,-0.5c0.9,0 1.6,-0.1 2.1,-0.2c1.2,-0.2 1.5,-1.5 1.7,-3.3c0.3,-2.5 0.3,-7.2 0.3,-12.7l0,-10.4l-0.2,0zm7.5,6.6c0,6.3 0.1,10.9 0.1,12c0.1,1.5 0.2,3.9 0.7,4.5c0.8,1.1 3.1,2.4 7.8,2.4c6.1,0 10.1,-1.2 13.7,-4.3c3.8,-3.3 5,-8.7 5,-14.8c0,-7.6 -3.2,-12.4 -5.7,-14.9c-5.5,-5.2 -12.3,-5.9 -16.9,-5.9c-1.2,0 -3.4,0.2 -3.9,0.4c-0.5,0.2 -0.7,0.5 -0.7,1.2c-0.1,2 -0.1,7.2 -0.1,11.9l0,7.5z" id="svg_60"/>
     <path class="st2" d="m601.9,26.1c0,-9 0,-10.7 -0.1,-12.6c-0.1,-2 -0.6,-3 -2.6,-3.4c-0.5,-0.1 -1.5,-0.2 -2.3,-0.2c-0.7,0 -1,-0.1 -1,-0.5c0,-0.4 0.4,-0.5 1.3,-0.5c1.6,0 3.3,0.1 4.8,0.1c1.5,0.1 2.9,0.1 3.7,0.1c1.9,0 13.7,0 14.9,-0.1c1.1,-0.1 2.1,-0.2 2.6,-0.4c0.3,-0.1 0.7,-0.2 1,-0.2c0.3,0 0.4,0.2 0.4,0.5c0,0.4 -0.3,1.1 -0.5,3.9c-0.1,0.6 -0.2,3.2 -0.3,3.9c-0.1,0.3 -0.2,0.7 -0.6,0.7c-0.4,0 -0.5,-0.3 -0.5,-0.8c0,-0.4 -0.1,-1.4 -0.4,-2.1c-0.4,-1.1 -1,-1.8 -4,-2.1c-1,-0.1 -7.3,-0.2 -8.4,-0.2c-0.3,0 -0.4,0.2 -0.4,0.6l0,15c0,0.4 0.1,0.7 0.4,0.7c1.3,0 8.1,0 9.5,-0.1c1.4,-0.1 2.3,-0.3 2.9,-0.9c0.4,-0.5 0.7,-0.8 1,-0.8c0.2,0 0.4,0.1 0.4,0.5c0,0.4 -0.2,1.3 -0.5,4.3c-0.1,1.2 -0.2,3.6 -0.2,4c0,0.5 0,1.1 -0.5,1.1c-0.4,0 -0.5,-0.2 -0.5,-0.5c-0.1,-0.6 -0.1,-1.4 -0.2,-2.1c-0.3,-1.2 -1.1,-2.1 -3.3,-2.3c-1.1,-0.1 -7,-0.2 -8.4,-0.2c-0.3,0 -0.4,0.2 -0.4,0.6l0,4.7c0,2 -0.1,7.5 0,9.2c0.1,4.1 1.1,5 7.1,5c1.5,0 4,0 5.6,-0.7c1.5,-0.7 2.3,-2 2.7,-4.4c0.1,-0.7 0.2,-0.9 0.7,-0.9c0.5,0 0.5,0.5 0.5,1.1c0,1.4 -0.5,5.4 -0.8,6.6c-0.4,1.5 -1,1.5 -3.2,1.5c-4.5,0 -7.7,-0.1 -10.3,-0.2c-2.6,-0.1 -4.4,-0.2 -6.2,-0.2c-0.7,0 -2,0 -3.4,0.1c-1.4,0 -2.9,0.1 -4.1,0.1c-0.8,0 -1.2,-0.2 -1.2,-0.6c0,-0.3 0.2,-0.5 1,-0.5c0.9,0 1.6,-0.1 2.1,-0.2c1.2,-0.2 1.5,-1.5 1.7,-3.3c0.3,-2.5 0.3,-7.2 0.3,-12.7l0,-10.6l-0.3,0z" id="svg_61"/>
     <path class="st2" d="m641.7,9.6c0.2,-1 0.5,-1.5 1,-1.5c0.5,0 0.8,0.3 1.6,1.8l16.2,33.1l16.2,-33.5c0.5,-1 0.8,-1.4 1.3,-1.4c0.5,0 0.9,0.6 1.1,1.8l5.4,36.4c0.5,3.7 1.1,5.5 2.9,6c1.7,0.5 2.9,0.6 3.7,0.6c0.5,0 1,0.1 1,0.4c0,0.5 -0.7,0.7 -1.5,0.7c-1.5,0 -9.7,-0.1 -12.1,-0.3c-1.4,-0.1 -1.7,-0.3 -1.7,-0.7c0,-0.3 0.2,-0.5 0.7,-0.7c0.4,-0.1 0.5,-0.9 0.3,-2.6l-3.6,-25.9l-0.2,0l-13,26.5c-1.4,2.8 -1.7,3.3 -2.2,3.3c-0.5,0 -1.1,-1.2 -2.1,-3c-1.4,-2.7 -6.1,-11.8 -6.8,-13.5c-0.5,-1.2 -4.1,-8.3 -6.2,-12.7l-0.2,0l-3.1,23.2c-0.1,1.1 -0.2,1.8 -0.2,2.8c0,1.1 0.8,1.7 1.8,1.9c1.1,0.2 1.9,0.3 2.5,0.3c0.5,0 0.9,0.1 0.9,0.4c0,0.5 -0.5,0.7 -1.4,0.7c-2.5,0 -5.2,-0.2 -6.2,-0.2c-1.1,0 -4,0.2 -5.9,0.2c-0.6,0 -1.1,-0.1 -1.1,-0.7c0,-0.3 0.4,-0.4 1,-0.4c0.5,0 0.9,0 1.8,-0.2c1.7,-0.4 2.1,-2.7 2.4,-4.7l5.7,-38.1z" id="svg_62"/>
     <path class="st2" d="m706.4,38.5c0,-3.2 -0.6,-4.5 -1.4,-6.2c-0.4,-1 -8.4,-14 -10.5,-17.1c-1.5,-2.2 -3,-3.7 -4.1,-4.3c-0.8,-0.4 -1.8,-0.8 -2.5,-0.8c-0.5,0 -0.9,-0.1 -0.9,-0.5c0,-0.4 0.4,-0.5 1.1,-0.5c1.1,0 5.5,0.2 7.5,0.2c1.2,0 3.7,-0.2 6.4,-0.2c0.6,0 0.9,0.2 0.9,0.5c0,0.4 -0.4,0.4 -1.3,0.7c-0.5,0.1 -0.8,0.6 -0.8,1.1c0,0.5 0.3,1.2 0.7,2c0.8,1.8 9.2,16.1 10.1,17.8c0.6,-1.4 8.1,-14.5 8.9,-16.4c0.6,-1.3 0.8,-2.3 0.8,-3.1c0,-0.6 -0.2,-1.2 -1.2,-1.5c-0.5,-0.1 -1.1,-0.2 -1.1,-0.6c0,-0.4 0.3,-0.5 1,-0.5c2,0 3.9,0.2 5.6,0.2c1.3,0 5.2,-0.2 6.4,-0.2c0.7,0 1.1,0.1 1.1,0.5c0,0.4 -0.5,0.6 -1.1,0.6c-0.6,0 -1.7,0.2 -2.6,0.7c-1.2,0.6 -1.9,1.3 -3.2,2.9c-2,2.4 -10.3,16.4 -11.4,18.9c-0.9,2.1 -0.9,4 -0.9,5.9l0,4.9c0,1 0,3.5 0.2,5.9c0.1,1.7 0.7,3 2.4,3.3c0.8,0.1 2.1,0.2 3,0.2c0.7,0 1,0.2 1,0.5c0,0.4 -0.5,0.6 -1.2,0.6c-3.7,0 -7.5,-0.2 -9.1,-0.2c-1.5,0 -5.2,0.2 -7.4,0.2c-0.8,0 -1.3,-0.1 -1.3,-0.6c0,-0.3 0.3,-0.5 1,-0.5c0.8,0 1.5,-0.1 2.1,-0.2c1.2,-0.2 1.7,-1.5 1.8,-3.3c0.2,-2.5 0.2,-5 0.2,-5.9l0,-5l-0.2,0z" id="svg_63"/>
    </g>
    <g id="svg_64">
     <path class="st2" d="m113.7,74.5l15.4,0l0,4l-10.5,0l0,7.4l9.8,0l0,4l-9.8,0l0,11.3l-4.9,0l0,-26.7z" id="svg_65"/>
     <path class="st2" d="m176.5,87.6c0,9 -5.4,14.1 -12.8,14.1c-7.5,0 -12.3,-5.7 -12.3,-13.6c0,-8.2 5.2,-14 12.7,-14c7.8,0 12.4,5.9 12.4,13.5zm-20,0.4c0,5.4 2.7,9.8 7.4,9.8c4.7,0 7.4,-4.4 7.4,-10c0,-5 -2.5,-9.8 -7.4,-9.8c-4.8,0 -7.4,4.5 -7.4,10z" id="svg_66"/>
     <path class="st2" d="m199.5,74.9c1.8,-0.3 4.6,-0.6 7.4,-0.6c3.8,0 6.5,0.6 8.3,2.1c1.5,1.2 2.3,3.1 2.3,5.4c0,3.5 -2.3,5.8 -4.8,6.7l0,0.1c1.9,0.7 3.1,2.6 3.7,5.2c0.8,3.3 1.5,6.4 2.1,7.5l-5,0c-0.4,-0.8 -1,-3 -1.8,-6.3c-0.8,-3.5 -2,-4.6 -4.8,-4.7l-2.5,0l0,11l-4.8,0l0,-26.4l-0.1,0zm4.8,11.8l2.9,0c3.3,0 5.4,-1.7 5.4,-4.4c0,-2.9 -2.1,-4.3 -5.2,-4.3c-1.5,0 -2.5,0.1 -3,0.2l0,8.5l-0.1,0z" id="svg_67"/>
     <path class="st2" d="m289.4,100c-1.7,0.6 -5,1.5 -8.6,1.5c-4.5,0 -7.9,-1.2 -10.5,-3.6c-2.4,-2.3 -3.8,-5.8 -3.7,-9.8c0,-8.4 6,-13.9 14.9,-13.9c3.3,0 5.9,0.7 7.1,1.3l-1.1,3.9c-1.5,-0.6 -3.3,-1.1 -6.1,-1.1c-5.7,0 -9.7,3.4 -9.7,9.6c0,6.1 3.7,9.7 9.3,9.7c1.7,0 3.1,-0.2 3.7,-0.6l0,-6.7l-4.7,0l0,-3.8l9.4,0l0,13.5z" id="svg_68"/>
     <path class="st2" d="m318.1,74.5l0,26.7l-4.9,0l0,-26.7l4.9,0z" id="svg_69"/>
     <path class="st2" d="m342.5,74.5l15.4,0l0,4l-10.5,0l0,7.4l9.8,0l0,4l-9.8,0l0,11.3l-4.9,0l0,-26.7z" id="svg_70"/>
     <path class="st2" d="m386.6,78.6l-7.6,0l0,-4.1l20.2,0l0,4.1l-7.7,0l0,22.6l-4.9,0l0,-22.6z" id="svg_71"/>
     <path class="st2" d="m436.1,89.4l-10.1,0l0,7.9l11.3,0l0,4l-16.1,0l0,-26.7l15.5,0l0,4l-10.7,0l0,6.9l10.1,0l0,3.9z" id="svg_72"/>
     <path class="st2" d="m460.4,74.9c2.1,-0.4 4.9,-0.6 7.8,-0.6c5,0 8.4,1 10.9,3.1c2.6,2.1 4.2,5.3 4.2,9.8c0,4.8 -1.6,8.3 -4.2,10.6c-2.7,2.4 -6.9,3.6 -12.1,3.6c-2.9,0 -5,-0.2 -6.6,-0.4l0,-26.1zm4.9,22.6c0.7,0.1 1.7,0.1 2.7,0.1c6.3,0 10.1,-3.5 10.1,-10.2c0,-5.9 -3.4,-9.3 -9.5,-9.3c-1.5,0 -2.7,0.1 -3.3,0.3l0,19.1z" id="svg_73"/>
     <path class="st2" d="m537.8,101.3l0,-11.1l-8.4,-15.6l5.6,0l3.2,6.9c0.9,2 1.6,3.5 2.3,5.3l0.1,0c0.7,-1.7 1.4,-3.4 2.3,-5.3l3.2,-6.9l5.5,0l-8.9,15.5l0,11.3l-4.9,0l0,-0.1z" id="svg_74"/>
     <path class="st2" d="m595.4,87.6c0,9 -5.4,14.1 -12.8,14.1c-7.5,0 -12.3,-5.7 -12.3,-13.6c0,-8.2 5.2,-14 12.7,-14c7.8,0 12.4,5.9 12.4,13.5zm-20,0.4c0,5.4 2.7,9.8 7.4,9.8c4.7,0 7.4,-4.4 7.4,-10c0,-5 -2.5,-9.8 -7.4,-9.8c-4.8,0 -7.4,4.5 -7.4,10z" id="svg_75"/>
     <path class="st2" d="m623.3,74.5l0,15.6c0,5.2 2.2,7.7 5.5,7.7c3.5,0 5.6,-2.4 5.6,-7.7l0,-15.6l4.9,0l0,15.3c0,8.2 -4.2,11.9 -10.7,11.9c-6.2,0 -10.2,-3.5 -10.2,-11.9l0,-15.3l4.9,0z" id="svg_76"/>
     <path class="st2" d="m668.8,78.6l-7.6,0l0,-4.1l20.2,0l0,4.1l-7.7,0l0,22.6l-4.9,0l0,-22.6z" id="svg_77"/>
     <path class="st2" d="m708.2,74.5l0,10.7l11.3,0l0,-10.7l4.9,0l0,26.7l-4.9,0l0,-11.8l-11.3,0l0,11.8l-4.9,0l0,-26.7l4.9,0z" id="svg_78"/>
    </g>
   </g>
  </g>
 </g>
</svg>